<?xml version="1.0" encoding="UTF-8"?>
<svg id="Layer_1" data-name="Layer 1" xmlns="http://www.w3.org/2000/svg" viewBox="0 0 479.91 497.31">
  <defs>
    <style>
      .cls-1 {
        stroke-width: 5px;
      }

      .cls-1, .cls-2, .cls-3 {
        stroke-miterlimit: 10;
      }

      .cls-1, .cls-3 {
        fill: #fff;
        stroke: #2e42ff;
      }

      .cls-2 {
        stroke: #fff;
      }

      .cls-2, .cls-4 {
        fill: #2e42ff;
      }

      .cls-3 {
        stroke-width: 6px;
      }

      .cls-4 {
        stroke-width: 0px;
      }
    </style>
  </defs>
  <path class="cls-4" d="M457.36,238.8c0,4.64,0,9.62,0,14.91,0,5.31-.34,10.94-.99,16.9H70.59c.65,23.21,5.3,45.08,13.92,65.62,8.61,20.56,20.54,38.45,35.79,53.69,15.24,15.26,33.14,27.34,53.69,36.29,20.54,8.95,42.75,13.42,66.62,13.42,35.12,0,65.45-8.11,90.97-24.36,25.51-16.23,44.9-34.95,58.16-56.17l50.71,39.77c-27.84,35.14-58.51,60.32-91.97,75.56-33.48,15.24-69.44,22.87-107.88,22.87-34.47,0-66.46-6.13-95.95-18.39-29.5-12.26-54.86-29.33-76.06-51.2-21.22-21.87-37.95-47.73-50.21-77.55C6.12,320.33,0,287.86,0,252.72c0-35.13,5.97-67.61,17.9-97.44,11.93-29.83,28.49-55.68,49.71-77.55,21.21-21.87,46.06-38.93,74.57-51.21,28.49-12.26,59.31-18.39,92.47-18.39,36.45,0,68.6,6.14,96.44,18.39,27.84,12.27,51.03,28.83,69.6,49.71,18.55,20.88,32.64,45.24,42.26,73.08,9.6,27.84,14.42,57.67,14.42,89.48ZM388.76,216.92c-1.99-43.75-16.08-80.04-42.26-108.87-26.19-28.83-63.48-43.25-111.85-43.25-22.54,0-43.42,4.15-62.64,12.43-19.23,8.3-36.13,19.56-50.71,33.81-14.59,14.26-26.19,30.5-34.8,48.72-8.62,18.24-13.59,37.29-14.91,57.17h317.17Z"/>
  <path class="cls-3" d="M463.47,226.41c0,4.5,0,9.31,0,14.44,0,5.15-.33,10.59-.96,16.37H88.88c.63,22.48,5.13,43.67,13.48,63.56,8.34,19.91,19.89,37.24,34.67,52,14.76,14.78,32.09,26.48,52,35.15,19.89,8.67,41.41,13,64.52,13,34.02,0,63.39-7.85,88.11-23.59,24.71-15.72,43.48-33.85,56.33-54.41l49.11,38.52c-26.96,34.04-56.67,58.42-89.08,73.19-32.42,14.76-67.26,22.15-104.48,22.15-33.39,0-64.37-5.94-92.93-17.81-28.57-11.87-53.13-28.41-73.67-49.59-20.55-21.19-36.76-46.22-48.63-75.11-11.89-28.89-17.82-60.34-17.82-94.37,0-34.02,5.78-65.48,17.33-94.37,11.55-28.89,27.6-53.93,48.15-75.11,20.54-21.19,44.61-37.71,72.22-49.59,27.6-11.87,57.45-17.82,89.56-17.82,35.3,0,66.44,5.94,93.41,17.82,26.96,11.89,49.43,27.93,67.41,48.15,17.97,20.22,31.61,43.82,40.93,70.78,9.3,26.96,13.96,55.85,13.96,86.67ZM397.03,205.22c-1.93-42.37-15.57-77.52-40.93-105.45-25.37-27.93-61.48-41.89-108.33-41.89-21.83,0-42.05,4.02-60.67,12.04-18.63,8.03-35,18.94-49.11,32.74-14.13,13.81-25.37,29.54-33.7,47.19-8.35,17.66-13.17,36.11-14.45,55.37h307.19Z"/>
  <circle class="cls-2" cx="446.26" cy="470.61" r="26.2"/>
  <circle class="cls-1" cx="451.21" cy="463.69" r="26.2"/>
</svg>